<svg width="24" height="24" viewBox="0 0 24 24" fill="none" xmlns="http://www.w3.org/2000/svg">
<path d="M20.5 9.5L17 19.5H7L3.5 9.5L12 3.5L20.5 9.5Z" fill="#54A075"/>
<path d="M7.52705 19.4997H16.4731C16.6144 19.4997 16.7364 19.4614 16.8391 19.3847C16.9411 19.3074 17.0114 19.2047 17.0501 19.0767L20.0671 10.0247C20.1057 9.89673 20.1057 9.76539 20.0671 9.63073C20.0284 9.49606 19.9517 9.39039 19.8371 9.31373L12.3471 4.08373C12.2431 4.00773 12.1274 3.96973 12.0001 3.96973C11.8727 3.96973 11.7574 4.00839 11.6541 4.08573L4.16405 9.31473C4.04872 9.39139 3.97172 9.49706 3.93305 9.63173C3.89439 9.76639 3.89439 9.89773 3.93305 10.0257L6.95005 19.0777C6.98872 19.2057 7.05939 19.3084 7.16206 19.3857C7.26472 19.4631 7.38639 19.5004 7.52705 19.4997ZM7.52705 20.5007C7.17039 20.5007 6.85239 20.4014 6.57305 20.2027C6.29305 20.0041 6.09972 19.7347 5.99305 19.3947L2.97405 10.3297C2.86672 9.98573 2.86672 9.64406 2.97405 9.30473C3.08205 8.96473 3.28739 8.69539 3.59005 8.49673L11.0801 3.26173C11.3661 3.06706 11.6724 2.96973 11.9991 2.96973C12.3257 2.96973 12.6324 3.06706 12.9191 3.26173L20.4091 8.49673C20.7117 8.69539 20.9167 8.96473 21.0241 9.30473C21.1321 9.64473 21.1321 9.98639 21.0241 10.3297L18.0071 19.3947C17.8991 19.7347 17.7054 20.0041 17.4261 20.2027C17.1461 20.4014 16.8281 20.5007 16.4721 20.5007H7.52705Z" fill="black"/>
</svg>
