<svg width="24" height="24" viewBox="0 0 24 24" fill="none" xmlns="http://www.w3.org/2000/svg">
<path d="M12 6H20V18H4V8H10L12 6Z" fill="#54A075"/>
<path d="M4.616 19C4.17133 19 3.791 18.8417 3.475 18.525C3.159 18.2083 3.00067 17.8287 3 17.386V8.616C3 8.172 3.15833 7.792 3.475 7.476C3.79167 7.16 4.17167 7.00133 4.615 7H9.942L11.942 5H19.385C19.829 5 20.209 5.15833 20.525 5.475C20.841 5.79167 20.9993 6.17167 21 6.615V17.385C21 17.829 20.8417 18.209 20.525 18.525C20.2083 18.841 19.8283 18.9993 19.385 19H4.616ZM5.114 13.23H10.616C10.7953 13.23 10.9427 13.1727 11.058 13.058C11.1733 12.9427 11.231 12.7953 11.231 12.616V7.114L5.114 13.23ZM4 12.943L8.942 8H4.616C4.436 8 4.28833 8.05767 4.173 8.173C4.05767 8.28833 4 8.436 4 8.616V12.943ZM4 14.232V17.386C4 17.5653 4.05767 17.7127 4.173 17.828C4.28833 17.9433 4.436 18.001 4.616 18.001H19.385C19.5643 18.001 19.7117 17.9433 19.827 17.828C19.9423 17.7127 20 17.5653 20 17.386V6.615C20 6.43567 19.9423 6.28833 19.827 6.173C19.7117 6.05767 19.5643 6 19.385 6H12.23V12.616C12.23 13.06 12.0717 13.44 11.755 13.756C11.4383 14.072 11.0583 14.2303 10.615 14.231L4 14.232Z" fill="black"/>
</svg>
