<svg width="24" height="24" viewBox="0 0 24 24" fill="none" xmlns="http://www.w3.org/2000/svg">
<path d="M11 10.5C12.2 9.7 12.3333 8.16667 12 8C11.6667 7.33333 10.5 6 9.50024 6C8.5 6 7.49997 7.5 7.5 8.5C7.50003 9.76491 8.49981 10.5 9.5 10.5C10.4998 10.5 9.8 11.3 11 10.5Z" fill="#54A075"/>
<path d="M16 18H3.5V16L6.5 14.5L10 14L13.5 14.5L16 16V18Z" fill="#54A075"/>
<path d="M2.5957 18.6158V16.9688C2.5957 16.5048 2.7157 16.1058 2.9557 15.7718C3.19637 15.4385 3.5197 15.1718 3.9257 14.9718C4.79304 14.5585 5.65437 14.2291 6.5097 13.9838C7.36437 13.7385 8.39304 13.6158 9.5957 13.6158C10.7984 13.6158 11.8274 13.7385 12.6827 13.9838C13.538 14.2291 14.3994 14.5585 15.2667 14.9718C15.672 15.1718 15.995 15.4385 16.2357 15.7718C16.4757 16.1058 16.5957 16.5048 16.5957 16.9688V18.6158H2.5957ZM18.5957 18.6158V16.9228C18.5957 16.3428 18.4784 15.7958 18.2437 15.2818C18.0097 14.7671 17.677 14.3258 17.2457 13.9578C17.737 14.0578 18.2104 14.1965 18.6657 14.3738C19.1204 14.5518 19.5704 14.7515 20.0157 14.9728C20.449 15.1908 20.7887 15.4698 21.0347 15.8098C21.2807 16.1498 21.4037 16.5208 21.4037 16.9228V18.6158H18.5957ZM9.5957 11.3848C8.77104 11.3848 8.06504 11.0908 7.4777 10.5028C6.89037 9.91479 6.59637 9.20846 6.5957 8.38379C6.59504 7.55912 6.88904 6.85312 7.4777 6.26579C8.06637 5.67846 8.77237 5.38446 9.5957 5.38379C10.419 5.38312 11.1254 5.67712 11.7147 6.26579C12.304 6.85446 12.5977 7.56046 12.5957 8.38379C12.5937 9.20712 12.3 9.91379 11.7147 10.5038C11.1294 11.0938 10.423 11.3871 9.5957 11.3838M16.8657 8.38379C16.8657 9.20912 16.5717 9.91579 15.9837 10.5038C15.3957 11.0918 14.6897 11.3851 13.8657 11.3838C13.823 11.3838 13.769 11.3791 13.7037 11.3698C13.6384 11.3605 13.5844 11.3498 13.5417 11.3378C13.881 10.9231 14.1414 10.4631 14.3227 9.95779C14.5047 9.45179 14.5957 8.92646 14.5957 8.38179C14.5957 7.83712 14.5007 7.31712 14.3107 6.82179C14.1207 6.32646 13.8644 5.86279 13.5417 5.43079C13.5957 5.41146 13.6497 5.39879 13.7037 5.39279C13.7577 5.38679 13.8117 5.38379 13.8657 5.38379C14.6904 5.38379 15.3964 5.67779 15.9837 6.26579C16.571 6.85379 16.865 7.55979 16.8657 8.38379ZM3.5957 17.6158H15.5957V16.9688C15.5957 16.7341 15.537 16.5291 15.4197 16.3538C15.3024 16.1785 15.0917 16.0105 14.7877 15.8498C14.0417 15.4511 13.255 15.1458 12.4277 14.9338C11.6004 14.7218 10.6564 14.6158 9.5957 14.6158C8.53504 14.6158 7.5907 14.7218 6.7627 14.9338C5.93604 15.1458 5.14937 15.4511 4.4027 15.8498C4.09937 16.0098 3.88904 16.1778 3.7717 16.3538C3.65437 16.5291 3.5957 16.7341 3.5957 16.9688V17.6158ZM9.5957 10.3848C10.1457 10.3848 10.6167 10.1888 11.0087 9.79679C11.4007 9.40479 11.5964 8.93379 11.5957 8.38379C11.595 7.83379 11.3994 7.36312 11.0087 6.97179C10.618 6.58046 10.147 6.38446 9.5957 6.38379C9.04437 6.38312 8.5737 6.57912 8.1837 6.97179C7.7937 7.36446 7.5977 7.83512 7.5957 8.38379C7.5937 8.93246 7.7897 9.40346 8.1837 9.79679C8.5777 10.1901 9.04837 10.3858 9.5957 10.3838" fill="black"/>
</svg>
