<svg xmlns="http://www.w3.org/2000/svg" width="24" height="24" viewBox="0 0 24 24"><path fill="currentColor" d="M2.596 18.616v-1.647q0-.696.36-1.197q.361-.5.97-.8q1.301-.62 2.584-.988q1.282-.368 3.086-.368t3.087.368t2.584.988q.608.3.969.8q.36.501.36 1.197v1.647zm16 0v-1.693q0-.87-.352-1.641q-.351-.772-.998-1.324q.737.15 1.42.416q.682.267 1.35.599q.65.327 1.019.837t.369 1.113v1.693zm-9-7.231q-1.237 0-2.118-.882t-.882-2.119t.882-2.118t2.118-.882t2.119.882t.881 2.118t-.881 2.12t-2.119.88m7.27-3q0 1.238-.882 2.12t-2.118.88q-.064 0-.162-.014t-.162-.032q.509-.622.781-1.38q.273-.759.273-1.576t-.285-1.56t-.769-1.391q.081-.029.162-.038t.162-.009q1.237 0 2.118.882t.882 2.118m-13.27 9.232h12v-.647q0-.352-.176-.615t-.632-.504q-1.119-.598-2.36-.916t-2.832-.318t-2.833.318q-1.24.318-2.36.916q-.455.24-.631.504q-.176.263-.176.615zm6-7.231q.825 0 1.413-.588t.587-1.413t-.587-1.412t-1.413-.588t-1.412.588t-.588 1.412t.588 1.413t1.412.587m0-2"/></svg>
