<svg xmlns="http://www.w3.org/2000/svg" width="24" height="24" viewBox="0 0 24 24"><path fill="currentColor" d="M6.196 17.485q1.275-.918 2.706-1.451Q10.332 15.5 12 15.5t3.098.534t2.706 1.45q.99-1.025 1.593-2.42Q20 13.667 20 12q0-3.325-2.337-5.663T12 4T6.337 6.338T4 12q0 1.667.603 3.064q.603 1.396 1.593 2.42m5.805-4.984q-1.264 0-2.133-.868T9 9.501t.868-2.133T12 6.5t2.132.868T15 9.5t-.868 2.132t-2.131.868M12 21q-1.883 0-3.525-.701t-2.858-1.916t-1.916-2.858T3 12t.701-3.525t1.916-2.858q1.216-1.215 2.858-1.916T12 3t3.525.701t2.858 1.916t1.916 2.858T21 12t-.701 3.525t-1.916 2.858q-1.216 1.215-2.858 1.916T12 21m0-1q1.383 0 2.721-.484q1.338-.483 2.313-1.324q-.974-.783-2.255-1.237T12 16.5t-2.789.445t-2.246 1.247q.975.84 2.314 1.324T12 20m0-8.5q.842 0 1.421-.579T14 9.5t-.579-1.421T12 7.5t-1.421.579T10 9.5t.579 1.421T12 11.5m0 6.75"/></svg>
